<?xml version="1.0" encoding="UTF-8" standalone="no"?>
<!DOCTYPE svg PUBLIC "-//W3C//DTD SVG 1.1//EN" "http://www.w3.org/Graphics/SVG/1.1/DTD/svg11.dtd">
<svg width="933" height="308" viewBox="0 0 933 308" version="1.1" xmlns="http://www.w3.org/2000/svg" xmlns:xlink="http://www.w3.org/1999/xlink" xml:space="preserve" xmlns:serif="http://www.serif.com/" style="fill-rule:evenodd;clip-rule:evenodd;stroke-linejoin:round;stroke-miterlimit:2;">
    <g transform="matrix(1,0,0,1,-375.957648,-126.822834)">
        <g id="Background" transform="matrix(1.632812,0,0,1.632812,0,0)">
            <clipPath id="_clip1">
                <rect x="197.974" y="49.936" width="628.21" height="242.453"/>
            </clipPath>
            <g clip-path="url(#_clip1)">
                <path d="M573.708,133.479C573.84,134.946 574.338,135.446 575.349,134.368C578.838,126.114 602.077,81.076 603.725,79.841C605.514,78.5 605.777,78.845 649.5,78.528C656.37,78.479 666.921,77.086 664.499,83.5C663.613,85.847 616.015,166.829 616.479,170.501C616.905,173.871 640.372,221.606 645.155,231.67C655.61,253.665 660.274,260.21 652.515,260.653C648.039,260.909 622.726,262.354 596.521,262.917C589.959,263.058 591.102,260.104 578.335,227.574C568.795,203.266 569.216,203.148 569.032,202.851C566.795,199.243 568.287,204.838 562.833,255.544C562.099,262.365 559.718,261.532 544.517,262.729C509.097,265.517 508.234,265.028 506.973,262.301C505.864,259.906 519.386,126.184 521.055,101.454C522.124,85.608 523.178,85.016 524.395,84.334C526.078,83.389 575.151,78.569 577.392,80.619C579.527,82.572 578.464,87.112 577.141,101.465C574.828,126.557 574.12,130.936 573.708,133.479Z" style="fill:rgb(22,23,28);"/>
                <path d="M738.867,135.527C740.528,122.032 743.655,86.916 744.265,85.389C745.206,83.031 745.952,81.163 775.526,79.948C795.242,79.137 801.887,75.958 801.238,83.473C798.332,117.141 792.906,162.583 792.086,169.451C785.635,223.479 789.42,258.823 725.452,264.016C672.128,268.344 656.952,251.791 654.461,224.504C653.493,213.897 665.084,123.291 667.227,93.479C667.708,86.791 674.613,88.217 690.531,86.789C721.941,83.973 722.699,84.252 723.726,86.366C725.39,89.786 714.107,187.088 712.5,207.5C711.505,220.124 727.638,220.436 731.071,210.362C732.561,205.988 738.76,136.84 738.867,135.527Z" style="fill:rgb(22,24,28);"/>
                <path d="M362.92,137.465C364.029,144.713 363.767,144.707 373.347,228.519C376.417,255.378 376.707,255.506 375.655,257.588C373.866,261.128 359.939,259.692 320.516,262.72C310.617,263.481 317.762,245.377 311.503,245.628C290.105,246.485 289.9,246.307 288.545,247.557C286.094,249.817 286.91,262.387 280.543,262.822C276.779,263.078 234.697,265.947 233.475,265.824C227.906,265.259 230.494,259.817 234.18,245.415C242.001,214.857 241.931,214.872 273.367,89.461C274.921,83.26 278.569,84.981 301.462,82.211C305.453,81.728 329.461,78.823 351.51,77.688C357.154,77.397 356.679,80.729 359.352,105.514C360.83,119.216 361.336,119.097 362.92,137.465Z" style="fill:rgb(22,23,28);"/>
                <path d="M399.513,204.819C419.597,203.761 419.558,203.673 426.492,203.274C434.183,202.832 426.58,216.824 433.668,220.151C446.57,226.207 456.11,206.479 440.591,199.304C404.673,182.699 377.48,183.52 377.131,145.502C376.712,99.808 393.591,85.732 432.539,82.967C446.368,81.985 474.794,78.821 487.565,83.302C504.835,89.362 506.838,100.552 506.424,116.498C505.797,140.596 504.268,141.333 502.39,142.237C499.218,143.765 498.993,142.694 458.473,145.009C447.836,145.617 457.159,134.311 450.375,128.654C441.021,120.852 427.51,139.456 443.609,147.269C475.819,162.9 503.708,161.253 504.837,197.481C506.71,257.573 473.131,260.969 449.468,263.003C372.307,269.634 380.496,240.887 379.558,210.5C379.376,204.581 385.788,205.647 399.513,204.819Z" style="fill:rgb(22,23,28);"/>
                <path d="M315.204,196.424C311.771,209.147 311.735,210.375 309.496,210.43C308.774,210.447 301.032,210.638 300.523,209.489C299.711,207.656 302.389,187.758 297.193,183.89C288.258,177.238 275.462,173.656 280.613,171.797C294.537,166.772 300.39,167.032 304.992,158.787C314.492,141.769 315.845,133.366 316.765,139.401C318.273,149.303 319.128,163.076 323.761,166.117C337.13,174.894 345.751,175.398 338.647,177.915C318.014,185.225 318.554,186.912 316.782,191.598C316.638,191.978 316.665,191.956 315.204,196.424Z" style="fill:rgb(248,247,246);"/>
                <path d="M573.708,133.479C574.255,133.776 574.802,134.072 575.349,134.368C574.338,135.446 573.84,134.946 573.708,133.479Z" style="fill:rgb(132,133,137);"/>
            </g>
        </g>
        <g id="Layer1">
        </g>
    </g>
</svg>
